<?xml version="1.0" standalone="no"?><!DOCTYPE svg PUBLIC "-//W3C//DTD SVG 1.1//EN" "http://www.w3.org/Graphics/SVG/1.1/DTD/svg11.dtd"><svg t="1636299708487" class="icon" viewBox="0 0 1024 1024" version="1.1" xmlns="http://www.w3.org/2000/svg" p-id="899" xmlns:xlink="http://www.w3.org/1999/xlink" width="200" height="200"><defs><style type="text/css"></style></defs><path d="M694.23 1024c-59.862 0-95.19-15.83-123.606-28.501-17.664-7.936-31.616-14.166-47.061-14.166s-29.355 6.23-47.062 14.166C448.128 1008.17 412.757 1024 352.896 1024c-112.47 0-256-251.221-256-448 0-207.061 155.008-320 234.667-320 40.49 0 78.336 12.715 111.744 23.936 28.672 9.643 55.808 18.73 80.256 18.73s51.584-9.087 80.256-18.73C637.269 268.715 675.115 256 715.563 256c49.536 0 127.104 43.05 179.541 125.397a21.29 21.29 0 0 1-11.477 31.744 148.48 148.48 0 0 0-104.064 141.483c0 73.813 55.466 137.088 129.066 147.2a21.248 21.248 0 0 1 17.579 27.179C884.096 870.912 783.445 1024 694.229 1024z m-170.667-85.333c24.533 0 43.904 8.661 64.469 17.834 25.984 11.606 55.467 24.832 106.197 24.832 50.518 0 137.003-102.186 184.022-242.218-82.091-22.528-141.355-97.835-141.355-184.448 0-73.814 42.155-139.648 107.392-171.563-44.672-58.027-100.31-84.437-128.725-84.437-33.494 0-66.347 11.05-98.134 21.717-32.085 10.752-62.378 20.95-93.866 20.95s-61.782-10.198-93.867-20.95c-31.744-10.667-64.597-21.717-98.133-21.717-57.43 0-192 94.336-192 277.333 0 190.592 139.178 405.333 213.333 405.333 50.73 0 80.213-13.184 106.197-24.832 20.566-9.173 39.979-17.834 64.47-17.834zM502.229 256a21.333 21.333 0 0 1-21.333-21.333C480.896 105.259 586.155 0 715.563 0a21.333 21.333 0 0 1 21.333 21.333C736.896 150.741 631.637 256 502.229 256zM692.907 43.99a192.299 192.299 0 0 0-167.979 168.02A192.341 192.341 0 0 0 692.907 43.99z" p-id="900" fill="#2c2c2c"></path></svg>